<svg xmlns="http://www.w3.org/2000/svg" viewBox="0 0 1191.62 403.4"><defs><style>.cls-1{fill:#e1251b;}</style></defs><g id="Layer_2" data-name="Layer 2"><g id="Calque_1" data-name="Calque 1"><path class="cls-1" d="M654.54,51.13V.1h11.51v51Z"/><path class="cls-1" d="M707.65,40.77H687.93l-3.67,10.36h-12L691.53.1H704.7l19,51H711.33Zm-16-10.37h12.39l-6.12-17.63Z"/><path class="cls-1" d="M730,51.13V.1h11.51v51Z"/><path class="cls-1" d="M655.61,223.91v-51h7.2v51Z"/><path class="cls-1" d="M681.89,223.91h-6.77V189.29h6.62v5a11.86,11.86,0,0,1,10.65-6c8.28,0,12.39,6,12.39,13.68v21.95H698v-20.8c0-4.82-2-8.71-8.06-8.71-5.33,0-8.06,4.25-8.06,9.5Z"/><path class="cls-1" d="M718.74,212.76c.43,3.6,3.17,6.47,8.06,6.47,3.81,0,5.9-2.15,5.9-4.6,0-2.16-1.58-3.82-4.46-4.46l-5.9-1.3c-5.4-1.15-8.64-4.82-8.64-9.72,0-5.9,5.54-10.94,12.31-10.94,9.5,0,12.45,6.19,13.17,9.29l-6,2.23c-.29-1.8-1.73-5.76-7.2-5.76-3.46,0-5.76,2.23-5.76,4.61,0,2.08,1.3,3.6,4,4.17l5.61,1.23c6.26,1.36,9.58,5.18,9.58,10.29,0,4.89-4.11,10.72-12.67,10.72-9.5,0-13.53-6.12-14.11-10.07Z"/><path class="cls-1" d="M757.53,189.29H765v6.12h-7.49v18c0,3.17,1.3,4.75,4.83,4.75a14.1,14.1,0,0,0,2.66-.28v5.76a15.1,15.1,0,0,1-4.61.64c-5.9,0-9.64-3.6-9.64-9.86v-19h-6.62v-6.12H746c3.74,0,5.32-2.3,5.32-5.32v-5.62h6.19Z"/><path class="cls-1" d="M776.39,171.3a4.86,4.86,0,1,1-4.82,4.89A4.85,4.85,0,0,1,776.39,171.3Zm-3.31,52.61V189.29h6.69v34.62Z"/><path class="cls-1" d="M800.14,189.29h7.49v6.12h-7.49v18c0,3.17,1.3,4.75,4.83,4.75a14.1,14.1,0,0,0,2.66-.28v5.76a15.16,15.16,0,0,1-4.61.64c-5.9,0-9.64-3.6-9.64-9.86v-19h-6.63v-6.12h1.88c3.74,0,5.32-2.3,5.32-5.32v-5.62h6.19Z"/><path class="cls-1" d="M828.28,225c-8.06,0-12.95-6-12.95-13.89V189.29h6.76v20.8c0,4.75,2.16,8.93,7.85,8.93,5.47,0,8.21-3.6,8.21-8.85V189.29h6.76v28.22a59.15,59.15,0,0,0,.36,6.4h-6.48a31.39,31.39,0,0,1-.28-4.17C836.63,223.34,832.32,225,828.28,225Z"/><path class="cls-1" d="M865.35,189.29h7.49v6.12h-7.49v18c0,3.17,1.3,4.75,4.82,4.75a14.12,14.12,0,0,0,2.67-.28v5.76a15.16,15.16,0,0,1-4.61.64c-5.9,0-9.64-3.6-9.64-9.86v-19H852v-6.12h1.88c3.74,0,5.32-2.3,5.32-5.32v-5.62h6.19Z"/><path class="cls-1" d="M679.15,305.05a11.58,11.58,0,0,1-10.72,6.19c-10.15,0-16.41-8.06-16.41-18.36,0-9.78,6.62-18.13,16.41-18.13,6.12,0,9.43,3,10.58,5.83V258.19h6.69V303.9a55,55,0,0,0,.36,6.4h-6.55a29.44,29.44,0,0,1-.36-4.68Zm-10.08.21c6.19,0,10-5.39,10-12.52s-3.74-12-9.93-12-10.22,5-10.22,12.16S662.6,305.26,669.07,305.26Z"/><path class="cls-1" d="M700.67,258.62c2.88,0,5.47,2.16,5.47,6.34,0,8.92-5.76,12.59-9.93,13.1V274.6c3.24-.72,5.47-4,5.54-7.27a2.64,2.64,0,0,1-1.44.36,4.36,4.36,0,0,1-4.53-4.6A4.69,4.69,0,0,1,700.67,258.62Z"/><path class="cls-1" d="M740.48,296.05h-22.6l-5.4,14.25h-7.56l20.3-51h8.13l20.3,51H746Zm-20.09-6.55H738l-8.86-22.89Z"/><path class="cls-1" d="M772,311.38c-8.06,0-13-6-13-13.89V275.68h6.76v20.8c0,4.75,2.16,8.93,7.85,8.93,5.47,0,8.2-3.6,8.2-8.85V275.68h6.77V303.9a59.15,59.15,0,0,0,.36,6.4h-6.48a31.15,31.15,0,0,1-.29-4.17C780.35,309.73,776,311.38,772,311.38Z"/><path class="cls-1" d="M809.07,275.68h7.49v6.12h-7.49v18c0,3.17,1.3,4.75,4.82,4.75a14.12,14.12,0,0,0,2.67-.28V310a15.16,15.16,0,0,1-4.61.64c-5.9,0-9.64-3.6-9.64-9.86v-19h-6.63v-6.12h1.87c3.75,0,5.33-2.3,5.33-5.32v-5.62h6.19Z"/><path class="cls-1" d="M857.44,293c0,10.58-7.34,18.42-17.71,18.42S822,303.54,822,293s7.34-18.36,17.7-18.36S857.44,282.45,857.44,293Zm-6.91,0c0-8-5-12.31-10.8-12.31S828.94,285,828.94,293s5,12.38,10.79,12.38S850.53,301,850.53,293Z"/><path class="cls-1" d="M866.08,310.3V275.68h6.47v4.61c2.16-3.82,6.48-5.62,10.51-5.62a10.82,10.82,0,0,1,10.37,6.55c2.73-5,7.2-6.55,11.59-6.55,6,0,11.94,4.11,11.94,13.18V310.3h-6.69V288.57c0-4.54-2.23-7.92-7.34-7.92-4.75,0-8,3.74-8,8.71V310.3h-6.77V288.57c0-4.47-2.16-7.92-7.34-7.92-4.82,0-8.06,3.6-8.06,8.78V310.3Z"/><path class="cls-1" d="M935.75,290.51l9.36-1.37c2.08-.29,2.66-1.37,2.66-2.59,0-3.38-2.23-6.19-7.49-6.19-4.75,0-7.41,2.95-7.84,7L926,285.83c.72-6.62,6.69-11.23,14.18-11.23,10.36,0,14.4,5.9,14.4,12.67v17.35a31.91,31.91,0,0,0,.43,5.68h-6.62a24.75,24.75,0,0,1-.36-4.68c-1.52,2.45-5,5.76-11.16,5.76-7.05,0-11.59-4.89-11.59-10.36C925.24,294.83,929.78,291.37,935.75,290.51Zm12,5v-1.59l-10.58,1.59c-2.88.43-5,2.08-5,5.18,0,2.59,2.16,5,5.61,5C943.31,305.7,947.77,303,947.77,295.48Z"/><path class="cls-1" d="M974.33,275.68h7.49v6.12h-7.49v18c0,3.17,1.29,4.75,4.82,4.75a14.12,14.12,0,0,0,2.67-.28V310a15.16,15.16,0,0,1-4.61.64c-5.9,0-9.65-3.6-9.65-9.86v-19h-6.62v-6.12h1.87c3.75,0,5.33-2.3,5.33-5.32v-5.62h6.19Z"/><path class="cls-1" d="M993.19,257.69a4.86,4.86,0,1,1-4.83,4.89A4.85,4.85,0,0,1,993.19,257.69Zm-3.31,52.61V275.68h6.69V310.3Z"/><path class="cls-1" d="M1010.89,299.15c.43,3.6,3.17,6.47,8.06,6.47,3.82,0,5.91-2.15,5.91-4.6,0-2.16-1.59-3.82-4.47-4.46l-5.9-1.3c-5.4-1.15-8.64-4.82-8.64-9.72,0-5.9,5.55-10.94,12.31-10.94,9.5,0,12.45,6.19,13.17,9.29l-6,2.23c-.29-1.8-1.73-5.76-7.2-5.76-3.45,0-5.76,2.23-5.76,4.61,0,2.08,1.3,3.6,4,4.17l5.62,1.23c6.26,1.36,9.57,5.18,9.57,10.29,0,4.89-4.1,10.72-12.67,10.72-9.5,0-13.53-6.12-14.11-10.07Z"/><path class="cls-1" d="M1048.46,290.51l9.36-1.37c2.09-.29,2.66-1.37,2.66-2.59,0-3.38-2.23-6.19-7.48-6.19-4.75,0-7.42,2.95-7.85,7l-6.48-1.51c.72-6.62,6.7-11.23,14.18-11.23,10.37,0,14.4,5.9,14.4,12.67v17.35a33,33,0,0,0,.43,5.68h-6.62a25.67,25.67,0,0,1-.36-4.68c-1.51,2.45-5,5.76-11.16,5.76-7,0-11.59-4.89-11.59-10.36C1038,294.83,1042.49,291.37,1048.46,290.51Zm12,5v-1.59l-10.58,1.59c-2.88.43-5,2.08-5,5.18,0,2.59,2.16,5,5.62,5C1056,305.7,1060.48,303,1060.48,295.48Z"/><path class="cls-1" d="M1087,275.68h7.49v6.12H1087v18c0,3.17,1.3,4.75,4.83,4.75a14.1,14.1,0,0,0,2.66-.28V310a15.1,15.1,0,0,1-4.61.64c-5.9,0-9.64-3.6-9.64-9.86v-19h-6.62v-6.12h1.87c3.74,0,5.32-2.3,5.32-5.32v-5.62H1087Z"/><path class="cls-1" d="M1105.9,257.69a4.86,4.86,0,1,1-4.82,4.89A4.85,4.85,0,0,1,1105.9,257.69Zm-3.31,52.61V275.68h6.69V310.3Z"/><path class="cls-1" d="M1153.33,293c0,10.58-7.34,18.42-17.7,18.42s-17.71-7.84-17.71-18.42,7.34-18.36,17.71-18.36S1153.33,282.45,1153.33,293Zm-6.91,0c0-8-5-12.31-10.79-12.31s-10.8,4.32-10.8,12.31,5,12.38,10.8,12.38S1146.42,301,1146.42,293Z"/><path class="cls-1" d="M1168.74,310.3H1162V275.68h6.62v5a11.86,11.86,0,0,1,10.65-6c8.28,0,12.38,6,12.38,13.68V310.3h-6.76V289.5c0-4.82-2-8.71-8.06-8.71-5.33,0-8.06,4.25-8.06,9.5Z"/><path class="cls-1" d="M657.56,344.08a4.86,4.86,0,1,1-4.82,4.89A4.85,4.85,0,0,1,657.56,344.08Zm-3.31,52.61V362.07h6.69v34.62Z"/><path class="cls-1" d="M678.65,396.69h-6.77V362.07h6.62v5a11.87,11.87,0,0,1,10.66-6c8.27,0,12.38,6,12.38,13.68v21.95h-6.77v-20.8c0-4.82-2-8.71-8.06-8.71-5.33,0-8.06,4.25-8.06,9.5Z"/><path class="cls-1" d="M737,391.44a11.59,11.59,0,0,1-10.72,6.19c-10.15,0-16.42-8.06-16.42-18.36,0-9.78,6.63-18.13,16.42-18.13,6.11,0,9.43,3,10.58,5.83V344.58h6.69v45.71a55,55,0,0,0,.36,6.4h-6.55A29.44,29.44,0,0,1,737,392Zm-10.08.21c6.19,0,10-5.39,10-12.52s-3.74-12-9.93-12-10.23,5-10.23,12.16S720.47,391.65,726.94,391.65Z"/><path class="cls-1" d="M767.18,397.77c-8.06,0-13-6-13-13.89V362.07H761v20.8c0,4.75,2.16,8.93,7.84,8.93,5.47,0,8.21-3.6,8.21-8.85V362.07h6.77v28.22a56.64,56.64,0,0,0,.36,6.4h-6.48a29.55,29.55,0,0,1-.29-4.17C775.53,396.12,771.21,397.77,767.18,397.77Z"/><path class="cls-1" d="M798.2,385.54c.43,3.6,3.17,6.47,8.06,6.47,3.82,0,5.9-2.15,5.9-4.6,0-2.16-1.58-3.82-4.46-4.46l-5.9-1.3c-5.4-1.15-8.64-4.82-8.64-9.72,0-5.9,5.54-10.94,12.31-10.94,9.5,0,12.45,6.19,13.17,9.29l-6,2.23c-.29-1.8-1.73-5.76-7.2-5.76-3.45,0-5.76,2.23-5.76,4.61,0,2.08,1.3,3.6,4,4.17l5.62,1.22c6.26,1.37,9.57,5.19,9.57,10.3,0,4.89-4.1,10.72-12.67,10.72-9.5,0-13.53-6.12-14.11-10.07Z"/><path class="cls-1" d="M837,362.07h7.48v6.12H837v18c0,3.17,1.29,4.75,4.82,4.75a14,14,0,0,0,2.66-.28v5.76a15,15,0,0,1-4.61.64c-5.9,0-9.64-3.6-9.64-9.86v-19h-6.62v-6.12h1.87c3.74,0,5.33-2.3,5.33-5.32v-5.62H837Z"/><path class="cls-1" d="M871.76,368.91a21.84,21.84,0,0,0-3-.22c-5.69,0-9.5,3-9.5,10.66v17.34h-6.77V362.07h6.62v6.05a10.84,10.84,0,0,1,10.37-6.62,13.13,13.13,0,0,1,2.23.21Z"/><path class="cls-1" d="M882,344.08a4.86,4.86,0,1,1-4.82,4.89A4.85,4.85,0,0,1,882,344.08Zm-3.31,52.61V362.07h6.69v34.62Z"/><path class="cls-1" d="M927,386.83c-2,6.12-7.49,10.94-15.55,10.94-9.29,0-17.42-6.76-17.42-18.5,0-10.86,7.85-18.28,16.55-18.28,10.66,0,16.63,7.34,16.63,18.14a15.66,15.66,0,0,1-.14,2.16H901c.15,6.19,4.61,10.51,10.44,10.51,5.61,0,8.42-3.1,9.72-7Zm-6.84-11c-.15-5-3.39-8.85-9.5-8.85a9.31,9.31,0,0,0-9.43,8.85Z"/><path class="cls-1" d="M935.67,396.69V344.58h6.77v52.11Z"/><path class="cls-1" d="M953.38,396.69V344.58h6.77v52.11Z"/><path class="cls-1" d="M1001.75,386.83c-2,6.12-7.49,10.94-15.55,10.94-9.28,0-17.42-6.76-17.42-18.5,0-10.86,7.85-18.28,16.56-18.28,10.65,0,16.62,7.34,16.62,18.14a15.66,15.66,0,0,1-.14,2.16H975.76c.15,6.19,4.61,10.51,10.44,10.51,5.62,0,8.42-3.1,9.72-7Zm-6.84-11c-.14-5-3.38-8.85-9.5-8.85a9.31,9.31,0,0,0-9.43,8.85Z"/><path class="cls-1" d="M396.64,305.57H302.88v28.7h65.06l.07,1.5c-8.76,25-28.85,39.38-60.54,39.38-36.62,0-64.23-29.34-64.23-66.46,0-38.59,28.75-69.05,66.87-69.05,29.22,0,50,14.34,61.85,40l26.89-12.4c-16.62-36-48.13-55.81-88.74-55.81-54.1,0-96.47,42.74-96.47,97.3,0,53.11,41.21,94.71,93.83,94.71,27.46,0,48.19-11.08,63.17-28.37l2.7,21.61h23.3V308.29l.15-.89h-.15Z"/><polygon class="cls-1" points="396.64 150.29 248.36 150.29 248.36 102.96 379.56 102.96 379.56 75.52 248.36 75.52 248.36 28.2 396.64 28.2 396.64 0 218.15 0 218.15 178.49 396.64 178.49 396.64 150.29"/><polygon class="cls-1" points="148.03 73.76 30.21 73.76 30.21 0 0 0 0 178.49 30.21 178.49 30.21 102.21 148.03 102.21 148.03 178.49 178.49 178.49 178.49 0 148.03 0 148.03 73.76"/><polygon class="cls-1" points="104.35 368.19 104.35 246.6 178.49 246.6 178.49 218.15 0 218.15 0 246.6 74.14 246.6 74.14 368.19 0 368.19 0 396.64 178.49 396.64 178.49 368.19 104.35 368.19"/><path class="cls-1" d="M473.29,0h12.09L466.74,51H455L436.3,0h12.53l12.3,35.9Z"/><path class="cls-1" d="M494.79,51V0h18.49c15.33,0,25.61,9.79,25.61,25.55S528.61,51,513.21,51Zm18-10.72c7.85,0,14.26-4.54,14.26-14.75s-6.41-14.83-14.26-14.83h-6.61V40.3Z"/><rect class="cls-1" x="612.8" width="3.98" height="396.64"/></g></g></svg>