<?xml version="1.0" encoding="UTF-8"?>
<svg id="Layer_2" data-name="Layer 2" xmlns="http://www.w3.org/2000/svg" viewBox="0 0 175.75 89.28">
  <defs>
    <style>
      .cls-1 {
        fill: #00a651;
      }

      .cls-1, .cls-2, .cls-3 {
        fill-rule: evenodd;
        stroke-width: 0px;
      }

      .cls-2 {
        fill: #ed1c29;
      }

      .cls-3 {
        fill: #231f20;
      }
    </style>
  </defs>
  <g id="Layer_1-2" data-name="Layer 1">
    <g>
      <path class="cls-1" d="m91.22,31.82c7.7-1.01,13.25-1.66,21.67-3.53,3.02,10.08,3.74,18.72,4.32,42.41,14.47-14.76,17.57-20.23,17.57-23.83,0-4.18-6.12-5.54-6.12-11.3,0-4.32,4.18-7.13,7.49-7.27,3.89,0,8.78,3.1,8.78,8.71,0,12.67-16.7,31.46-40.46,51.55h-3.6l.58-17.28c.14-5.83.29-18.65-1.94-29.02-1.58-6.98-3.24-6.98-8.28-6.98v-3.46h0Z"/>
      <path class="cls-1" d="m169.63,77.97c-2.23,3.24-7.27,10.44-13.54,10.44-.72,0-5.54,0-5.54-4.97,0-1.44.29-2.81.94-5.47l-.14.14c-2.59,4.03-7.06,10.44-14.9,10.44s-9.65-6.84-9.65-10.44c0-12.96,13.97-28.87,24.55-28.87,3.96,0,5.47,1.51,6.84,2.66,1.94-6.84,4.18-13.97,4.18-15.19,0-2.09-1.66-2.52-3.74-2.52h-1.8v-2.23c11.59-.86,15.77-1.8,18.94-2.38l-10.01,33.62c-1.01,2.88-5.18,16.99-5.18,18.29,0,.36.14,1.08,1.01,1.08,1.94,0,5.54-5.18,6.12-5.83l1.94,1.22h0Zm-27.72,4.61c8.64,0,14.9-23.18,14.9-25.49,0-.58-.14-4.39-3.53-4.39-7.92,0-15.19,19.3-15.19,24.98,0,.43.14,4.9,3.82,4.9h0Z"/>
      <path class="cls-2" d="m83.3,69.77c-2.81,3.74-7.56,10.01-10.87,10.01-.86,0-2.09-.5-2.09-1.8,0-4.03,8.5-30.96,13.9-49.1-9.43,2.09-22.54,3.24-28.15,3.67v3.31c4.03-.14,8.21,0,8.21,4.03-.65,2.95-1.8,6.98-3.02,11.3-.43,1.66-1.15,3.67-1.66,5.62-2.02,5.98-4.32,11.66-6.84,14.76-2.66,2.95-7.56,8.5-15.77,8.5-13.25,0-16.34-12.96-16.78-23.69h35.14c-.36-6.84-2.23-29.02-26.5-29.02C12.74,27.36,0,39.38,0,58.17c0,21.6,14.4,31.1,28.51,31.1,10.3,0,17.86-3.46,25.63-13.39-.43,1.94-.72,3.53-.72,4.32,0,3.1,1.58,8.5,9.65,8.5,10.3,0,16.2-7.34,23.33-17.28l.94-1.22-3.17-1.73-.86,1.3h0ZM29.45,31.39c4.9,0,6.7,3.1,7.56,5.83,1.08,3.96,1.08,10.51,1.22,14.4h-18.65c0-17.42,4.68-20.23,9.86-20.23h0Z"/>
      <path class="cls-2" d="m80.21,0c-6.26,0-9.22,5.47-9.22,8.35,0,3.38,2.66,8.71,9.22,8.71,5.47,0,9.65-3.82,9.65-8.42S85.53,0,80.21,0h0Z"/>
      <path class="cls-3" d="m89.85,72.43c5.98,0,10.73-4.9,10.73-10.8s-4.75-10.73-10.73-10.73-10.58,4.9-10.58,10.73,4.75,10.8,10.58,10.8h0Z"/>
    </g>
  </g>
</svg>