<?xml version="1.0" encoding="utf-8"?>
<!-- Generator: Adobe Illustrator 23.0.3, SVG Export Plug-In . SVG Version: 6.00 Build 0)  -->
<svg version="1.1" id="Logo_4_lignes" xmlns="http://www.w3.org/2000/svg" xmlns:xlink="http://www.w3.org/1999/xlink" x="0px"
	 y="0px" viewBox="0 0 235.3 70.9" style="enable-background:new 0 0 235.3 70.9;" xml:space="preserve">
<style type="text/css">
	.st0{fill:none;}
	.st1{fill:#EE3124;}
	.st2{fill:#FFFFFF;}
</style>
<rect class="st0" width="235.3" height="70.9"/>
<g>
	<rect class="st1" width="34" height="70.9"/>
	<g>
		<g>
			<g>
				<g>
					<path class="st2" d="M26.2,57.7h-7.4c-1.6,0-3.4,0.3-3.4,2.8c0,0.9,0.3,1.5,0.6,1.9c0.7,0.8,1.9,1,2.7,1h7.4v1.2H10.7v-1.2h5.5
						c-0.6-0.1-1.9-1.2-1.9-3.1c0-1.5,0.6-2.6,1.3-3.1c0.8-0.6,1.8-0.6,3.1-0.6h7.4V57.7z"/>
					<path class="st2" d="M20.7,53.4c0,0,0.2,0,0.4,0c1.1-0.1,4-0.4,4-4.1c0-2.3-1.6-3.4-1.6-3.4l1.5,0.2c0,0,1.2,1.2,1.2,3.3
						c0,4.9-4.1,5.3-5.8,5.3c-1.9,0-6.1-0.5-6.1-4.7c0-4.2,4.6-4.4,5.8-4.4c0.3,0,0.6,0,0.6,0V53.4z M15.4,49.9
						c-0.1,3.3,4,3.4,4.3,3.4v-6.5C19.7,46.8,15.4,46.7,15.4,49.9z"/>
					<path class="st2" d="M21.3,29.9h-1.2V25h1.2V29.9z"/>
					<path class="st2" d="M26.4,10.6c0,3.1-2.7,4.4-6.1,4.4c-3.2,0-5.9-1.8-5.9-4.5c0-1.9,1.2-2.8,1.7-3h-5.4V6.3c0,0,10.2,0,11.3,0
						C23.6,6.3,26.4,7.3,26.4,10.6z M18.9,7.5c-0.6,0-1.9,0.1-2.6,0.8c-0.5,0.4-0.8,1.2-0.8,2.2c0,2.1,2.2,3.3,5,3.3
						c2.6,0,4.9-0.9,4.9-3.3c0-1.9-1.6-2.9-3-2.9H18.9z"/>
					<path class="st2" d="M14.6,16.7c0,0,10,3.1,10.1,3.2c0.2,0.1,0.2,0.1,0,0.2c-0.1,0-10.1,3.2-10.1,3.2v1.2L25.4,21
						c0.6-0.3,0.9-0.6,0.9-1.1c0-0.5-0.2-0.8-0.9-1.1c0,0-10.8-3.4-10.8-3.4V16.7z"/>
					<g>
						<path class="st2" d="M26.2,43.5H14.6v-1.2h11.6V43.5z"/>
						<path class="st2" d="M12.8,43.5h-1.3v-1.2h1.3V43.5z"/>
					</g>
					<path class="st2" d="M24,35.5c0,1.1,0.3,3.4-0.9,3.4c-1,0-0.9-1.6-0.9-3.2c0-2.5-1.5-4.1-3.9-4.1c-1.3,0-2.3,0.4-3,1.2v-1.4h-1
						v4.3h0c0,0,0,0.1,0,0.1c0,1.8,1,3.8,4,3.8c2,0,3-1.3,3.1-1.8c0,0.5,0.3,2.3,1.8,2.2c0.9,0,1.3-0.5,1.5-1.5
						c0.2,0.6,1.1,1.5,2.4,1.5c1.6,0,3-1.5,3-4.5c0-2.5-1.1-4.3-3.2-4.4C25,31.2,24,32.5,24,35.5z M18.3,38.5c-1.7,0-3-0.8-3-2.8
						c0-2.2,1.5-2.9,3-2.9c2,0,2.9,1.2,2.9,3C21.3,37.3,20.1,38.5,18.3,38.5z M29.2,35.6c0,2.2-0.9,3.4-2.1,3.4
						c-1,0-1.8-0.8-1.9-1.5c0,0,0-1,0-1.9c0-2.5,0.9-3.2,1.9-3.2C28.5,32.4,29.2,34.1,29.2,35.6z"/>
				</g>
			</g>
		</g>
	</g>
</g>
<path d="M53.1,14.9v-0.7c0.3-0.1,0.7-0.1,1-0.2v-3.1h-4.4v3.1c0.4,0,0.7,0.1,1,0.2v0.7h-3.3v-0.7c0.3-0.1,0.7-0.2,1.1-0.2V7.2
	c-0.4,0-0.8-0.1-1.1-0.2V6.3h3.3V7c-0.3,0.1-0.7,0.1-1,0.2v2.8h4.4V7.2c-0.3,0-0.7-0.1-1-0.2V6.3h3.3V7c-0.3,0.1-0.7,0.2-1.1,0.2
	v6.9c0.4,0,0.8,0.1,1.1,0.2v0.7H53.1z"/>
<path d="M62.8,14.9v-0.7c0.3-0.1,0.7-0.1,1-0.2l-0.5-1.4h-3.6l-0.5,1.4c0.3,0,0.7,0.1,1,0.2v0.7h-3v-0.7c0.2-0.1,0.5-0.1,0.8-0.1
	l2.9-7.8h1.4l2.9,7.8c0.2,0,0.5,0.1,0.8,0.1v0.7H62.8z M61.9,8.8c-0.2-0.4-0.3-0.8-0.4-1.3h0c-0.1,0.4-0.2,0.9-0.4,1.3l-1.1,3h3
	L61.9,8.8z"/>
<path d="M73.6,7.2v4.5c0,2.3-1.2,3.4-3.4,3.4c-2.7,0-3.2-1.5-3.2-3V7.2c-0.3,0-0.6-0.1-0.9-0.2V6.3h3.1V7c-0.3,0.1-0.7,0.1-1,0.2
	v4.8c0,1.2,0.4,2.1,2.1,2.1c1.5,0,2.2-0.6,2.2-2.4V7.2c-0.3,0-0.7-0.1-1-0.2V6.3h3V7C74.2,7.1,73.9,7.1,73.6,7.2z"/>
<path d="M82.1,8.4h-0.8c-0.1-0.5-0.2-0.9-0.2-1.2h-1.8v6.8c0.4,0,0.8,0.1,1.1,0.2v0.7h-3.4v-0.7c0.3-0.1,0.7-0.2,1.1-0.2V7.3h-1.8
	c0,0.3-0.1,0.7-0.2,1.2h-0.8V6.3h6.7V8.4z"/>
<path d="M83.1,14.9v-0.7c0.3-0.1,0.7-0.2,1.1-0.2V7.2c-0.4,0-0.8-0.1-1.1-0.2V6.3h5.6v2h-0.8c-0.1-0.4-0.1-0.8-0.2-1.1h-2.3V10h1.8
	c0.1-0.3,0.1-0.6,0.2-0.9h0.7v2.6h-0.7c-0.1-0.3-0.1-0.6-0.2-0.9h-1.8V14h2.3c0-0.3,0.1-0.7,0.2-1.1h0.8v2H83.1z"/>
<path d="M93.4,14.9v-0.7c0.3-0.1,0.7-0.2,1.1-0.2V7.2c-0.4,0-0.8-0.1-1.1-0.2V6.3H99v2h-0.8C98.1,7.9,98,7.5,98,7.2h-2.3V10h1.8
	c0.1-0.3,0.1-0.6,0.2-0.9h0.7v2.6h-0.7c-0.1-0.3-0.1-0.6-0.2-0.9h-1.8V14H98c0-0.3,0.1-0.7,0.2-1.1H99v2H93.4z M96.3,5.6L95.9,5
	l1.8-1.4l0.6,0.8L96.3,5.6z"/>
<path d="M106.2,8.6c-0.1-0.4-0.1-0.8-0.2-1.1c-0.4-0.1-0.9-0.2-1.3-0.2c-1.9,0-2.7,1.5-2.7,3.4c0,2.1,0.9,3.3,3,3.3
	c0.7,0,1.5-0.2,2-0.4l0.1,1.1c-0.7,0.3-1.5,0.4-2.4,0.4c-2.6,0-4-1.6-4-4.2c0-2.7,1.3-4.6,4.2-4.6c0.7,0,1.4,0.1,2,0.3v2.1H106.2z"
	/>
<path d="M112.2,15c-2.6,0-3.8-1.7-3.8-4.3c0-2.9,1.8-4.5,4.1-4.5c2.3,0,3.8,1.5,3.8,4.3C116.3,13.4,114.5,15,112.2,15z M112.4,7.2
	c-1.4,0-2.7,1.2-2.7,3.3c0,2.1,0.9,3.5,2.7,3.5c1.4,0,2.7-1.1,2.7-3.3C115.1,8.4,114.1,7.2,112.4,7.2z"/>
<path d="M117.6,14.9v-0.7c0.3-0.1,0.7-0.2,1.1-0.2V7.2c-0.4,0-0.8-0.1-1.1-0.2V6.3h3.4V7c-0.3,0.1-0.7,0.2-1.1,0.2V14h2.2
	c0-0.3,0.1-0.8,0.2-1.2h0.8v2.1H117.6z"/>
<path d="M124,14.9v-0.7c0.3-0.1,0.7-0.2,1.1-0.2V7.2c-0.4,0-0.8-0.1-1.1-0.2V6.3h5.6v2h-0.8c-0.1-0.4-0.1-0.8-0.2-1.1h-2.3V10h1.8
	c0.1-0.3,0.1-0.6,0.2-0.9h0.7v2.6h-0.7c-0.1-0.3-0.1-0.6-0.2-0.9h-1.8V14h2.3c0-0.3,0.1-0.7,0.2-1.1h0.8v2H124z"/>
<path d="M50.8,29.2c-0.9,0-1.7-0.1-2.2-0.1h-1.1v-0.7c0.3-0.1,0.7-0.2,1.1-0.2v-6.9c-0.4,0-0.8-0.1-1.1-0.2v-0.7h1.1
	c0.7,0,1.7,0,2.6,0c2.8,0,4.4,1.3,4.4,4.2C55.6,27.7,53.6,29.2,50.8,29.2z M51.1,21.5c-0.5,0-1,0-1.3,0v6.6c0.3,0.1,0.8,0.1,1.1,0.1
	c2,0,3.4-1,3.4-3.4C54.3,22.6,53.3,21.5,51.1,21.5z"/>
<path d="M57,23.1c0.8-0.9,0.8-1.5,0.5-1.8c-0.4-0.5-0.1-1.1,0.6-1.1c0.9,0,1.4,1.6-0.6,3.4L57,23.1z"/>
<path d="M61,29.2v-0.7c0.3-0.1,0.7-0.2,1.1-0.2v-6.9c-0.4,0-0.8-0.1-1.1-0.2v-0.7h3.4v0.7c-0.3,0.1-0.7,0.2-1.1,0.2v6.9
	c0.4,0,0.8,0.1,1.1,0.2v0.7H61z"/>
<path d="M73.7,21.4v7.7h-1.5l-3.3-5.3c-0.4-0.6-0.7-1.2-1-1.8c0.1,1.5,0.1,3.8,0.1,6.3c0.3,0,0.7,0.1,1,0.2v0.7h-3.3v-0.7
	c0.3-0.1,0.7-0.2,1.1-0.2v-6.9c-0.4,0-0.8-0.1-1.1-0.2v-0.7h2.7l3.3,5.3c0.4,0.6,0.7,1.2,1,1.8c-0.1-1.4-0.1-3.7-0.1-6.2
	c-0.3,0-0.7-0.1-1-0.2v-0.7h3v0.7C74.3,21.3,74,21.4,73.7,21.4z"/>
<path d="M83,25.6v3.2c-0.9,0.3-1.9,0.5-2.8,0.5c-2.6,0-4.3-1.6-4.3-4.2c0-2.7,1.8-4.6,4.6-4.6c0.8,0,1.6,0.1,2.3,0.3v2H82
	c-0.1-0.4-0.1-0.8-0.2-1.1c-0.5-0.1-1-0.2-1.4-0.2c-1.8,0-3.3,1.1-3.3,3.4c0,2.1,1.2,3.4,3.2,3.4c0.6,0,1.1-0.1,1.5-0.2v-2.4
	c-0.4,0-0.8-0.1-1.1-0.2v-0.7h3.1v0.7C83.5,25.5,83.3,25.6,83,25.6z"/>
<path d="M84.9,29.2v-0.7c0.3-0.1,0.7-0.2,1.1-0.2v-6.9c-0.4,0-0.8-0.1-1.1-0.2v-0.7h5.6v2h-0.8c-0.1-0.4-0.1-0.8-0.2-1.1h-2.3v2.8
	H89c0.1-0.3,0.1-0.6,0.2-0.9h0.7V26h-0.7c-0.1-0.3-0.1-0.6-0.2-0.9h-1.8v3.1h2.3c0-0.3,0.1-0.7,0.2-1.1h0.8v2H84.9z M87.8,19.9
	l-0.5-0.6l1.8-1.4l0.6,0.8L87.8,19.9z"/>
<path d="M100,21.4v7.7h-1.5l-3.3-5.3c-0.4-0.6-0.7-1.2-1-1.8c0.1,1.5,0.1,3.8,0.1,6.3c0.3,0,0.7,0.1,1,0.2v0.7H92v-0.7
	c0.3-0.1,0.7-0.2,1.1-0.2v-6.9c-0.4,0-0.8-0.1-1.1-0.2v-0.7h2.7l3.3,5.3c0.4,0.6,0.7,1.2,1,1.8c-0.1-1.4-0.1-3.7-0.1-6.2
	c-0.3,0-0.7-0.1-1-0.2v-0.7h3v0.7C100.7,21.3,100.4,21.4,100,21.4z"/>
<path d="M102.2,29.2v-0.7c0.3-0.1,0.7-0.2,1.1-0.2v-6.9c-0.4,0-0.8-0.1-1.1-0.2v-0.7h3.4v0.7c-0.3,0.1-0.7,0.2-1.1,0.2v6.9
	c0.4,0,0.8,0.1,1.1,0.2v0.7H102.2z"/>
<path d="M106.9,29.2v-0.7c0.3-0.1,0.7-0.2,1.1-0.2v-6.9c-0.4,0-0.8-0.1-1.1-0.2v-0.7h5.6v2h-0.8c-0.1-0.4-0.1-0.8-0.2-1.1h-2.3v2.8
	h1.8c0.1-0.3,0.1-0.6,0.2-0.9h0.7V26h-0.7c-0.1-0.3-0.1-0.6-0.2-0.9h-1.8v3.1h2.3c0-0.3,0.1-0.7,0.2-1.1h0.8v2H106.9z"/>
<path d="M119.1,29.2l-2.5-3.9h-0.2v3c0.3,0,0.7,0.1,1,0.2v0.7h-3.2v-0.7c0.3-0.1,0.7-0.2,1.1-0.2v-6.9c-0.4,0-0.8-0.1-1.1-0.2v-0.7
	h1c0.3,0,1.2-0.1,2.3-0.1c1.7,0,2.9,0.6,2.9,2.2c0,1.4-1.1,2.2-2.5,2.4c0.2,0.2,0.4,0.5,0.6,0.8l1.6,2.4c0.3,0,0.6,0.1,1,0.2v0.7
	H119.1z M117.1,21.5c-0.3,0-0.5,0-0.8,0v2.9c0.1,0,0.4,0,0.7,0c1.2,0,2-0.6,2-1.5C119,21.9,118.4,21.5,117.1,21.5z"/>
<path d="M122,29.2v-0.7c0.3-0.1,0.7-0.2,1.1-0.2v-6.9c-0.4,0-0.8-0.1-1.1-0.2v-0.7h3.4v0.7c-0.3,0.1-0.7,0.2-1.1,0.2v6.9
	c0.4,0,0.8,0.1,1.1,0.2v0.7H122z"/>
<path d="M126.7,29.2v-0.7c0.3-0.1,0.7-0.2,1.1-0.2v-6.9c-0.4,0-0.8-0.1-1.1-0.2v-0.7h5.6v2h-0.8c-0.1-0.4-0.1-0.8-0.2-1.1h-2.3v2.8
	h1.8c0.1-0.3,0.1-0.6,0.2-0.9h0.7V26H131c-0.1-0.3-0.1-0.6-0.2-0.9h-1.8v3.1h2.3c0-0.3,0.1-0.7,0.2-1.1h0.8v2H126.7z"/>
<path d="M137,29.2v-0.7c0.3-0.1,0.7-0.2,1.1-0.2v-6.9c-0.4,0-0.8-0.1-1.1-0.2v-0.7h5.6v2h-0.8c-0.1-0.4-0.1-0.8-0.2-1.1h-2.3v2.8
	h1.8c0.1-0.3,0.1-0.6,0.2-0.9h0.7V26h-0.7c-0.1-0.3-0.1-0.6-0.2-0.9h-1.8v3.1h2.3c0-0.3,0.1-0.7,0.2-1.1h0.8v2H137z"/>
<path d="M150.7,22.7h-0.8c-0.1-0.5-0.2-0.9-0.2-1.2H148v6.8c0.4,0,0.8,0.1,1.1,0.2v0.7h-3.4v-0.7c0.3-0.1,0.7-0.2,1.1-0.2v-6.8H145
	c0,0.3-0.1,0.7-0.2,1.2H144v-2.1h6.7V22.7z"/>
<path d="M158.1,29.2c-0.9,0-1.7-0.1-2.2-0.1h-1.1v-0.7c0.3-0.1,0.7-0.2,1.1-0.2v-6.9c-0.4,0-0.8-0.1-1.1-0.2v-0.7h1.1
	c0.7,0,1.7,0,2.6,0c2.8,0,4.4,1.3,4.4,4.2C162.9,27.7,161,29.2,158.1,29.2z M158.4,21.5c-0.5,0-1,0-1.3,0v6.6
	c0.3,0.1,0.8,0.1,1.1,0.1c2,0,3.4-1,3.4-3.4C161.7,22.6,160.7,21.5,158.4,21.5z"/>
<path d="M164.3,29.2v-0.7c0.3-0.1,0.7-0.2,1.1-0.2v-6.9c-0.4,0-0.8-0.1-1.1-0.2v-0.7h5.6v2H169c-0.1-0.4-0.1-0.8-0.2-1.1h-2.3v2.8
	h1.8c0.1-0.3,0.1-0.6,0.2-0.9h0.7V26h-0.7c-0.1-0.3-0.1-0.6-0.2-0.9h-1.8v3.1h2.3c0-0.3,0.1-0.7,0.2-1.1h0.8v2H164.3z"/>
<path d="M181.9,25.6v3.2c-0.9,0.3-1.9,0.5-2.8,0.5c-2.6,0-4.3-1.6-4.3-4.2c0-2.7,1.8-4.6,4.6-4.6c0.8,0,1.6,0.1,2.3,0.3v2h-0.8
	c-0.1-0.4-0.1-0.8-0.2-1.1c-0.5-0.1-1-0.2-1.4-0.2c-1.8,0-3.3,1.1-3.3,3.4c0,2.1,1.3,3.4,3.2,3.4c0.6,0,1.1-0.1,1.5-0.2v-2.4
	c-0.4,0-0.8-0.1-1.1-0.2v-0.7h3.1v0.7C182.5,25.5,182.2,25.6,181.9,25.6z"/>
<path d="M183.8,29.2v-0.7c0.3-0.1,0.7-0.2,1.1-0.2v-6.9c-0.4,0-0.8-0.1-1.1-0.2v-0.7h5.6v2h-0.8c-0.1-0.4-0.1-0.8-0.2-1.1h-2.3v2.8
	h1.8c0-0.3,0.1-0.6,0.2-0.9h0.7V26h-0.7c-0.1-0.3-0.1-0.6-0.2-0.9h-1.8v3.1h2.3c0-0.3,0.1-0.7,0.2-1.1h0.8v2H183.8z"/>
<path d="M193.3,29.3c-0.7,0-1.3-0.1-1.8-0.2v-2h0.8c0.1,0.4,0.1,0.8,0.2,1.1c0.3,0.1,0.6,0.1,0.9,0.1c1,0,1.9-0.4,1.9-1.5
	c0-1.9-3.9-1.1-3.9-3.9c0-1.4,1.1-2.4,3-2.4c0.6,0,1.1,0.1,1.7,0.2v2h-0.8c-0.1-0.4-0.1-0.8-0.2-1.1c-0.2,0-0.5-0.1-0.7-0.1
	c-1.2,0-1.8,0.5-1.8,1.3c0,1.9,3.9,1.2,3.9,3.9C196.4,28.2,195.2,29.3,193.3,29.3z"/>
<path d="M204.2,22.7h-0.8c-0.1-0.5-0.2-0.9-0.2-1.2h-1.8v6.8c0.4,0,0.8,0.1,1.1,0.2v0.7h-3.4v-0.7c0.3-0.1,0.7-0.2,1.1-0.2v-6.8
	h-1.8c0,0.3-0.1,0.7-0.2,1.2h-0.8v-2.1h6.7V22.7z"/>
<path d="M205.2,29.2v-0.7c0.3-0.1,0.7-0.2,1.1-0.2v-6.9c-0.4,0-0.8-0.1-1.1-0.2v-0.7h3.4v0.7c-0.3,0.1-0.7,0.2-1.1,0.2v6.9
	c0.4,0,0.8,0.1,1.1,0.2v0.7H205.2z"/>
<path d="M213.7,29.3c-2.6,0-3.8-1.7-3.8-4.3c0-2.9,1.8-4.5,4.1-4.5c2.3,0,3.8,1.5,3.8,4.3C217.8,27.6,215.9,29.3,213.7,29.3z
	 M213.8,21.5c-1.4,0-2.7,1.2-2.7,3.3c0,2.1,0.9,3.5,2.7,3.5c1.4,0,2.7-1.1,2.7-3.3C216.5,22.7,215.5,21.5,213.8,21.5z"/>
<path d="M227,21.4v7.7h-1.5l-3.3-5.3c-0.4-0.6-0.7-1.2-1-1.8c0.1,1.5,0.1,3.8,0.1,6.3c0.3,0,0.7,0.1,1,0.2v0.7H219v-0.7
	c0.3-0.1,0.7-0.2,1.1-0.2v-6.9c-0.4,0-0.8-0.1-1.1-0.2v-0.7h2.7l3.3,5.3c0.4,0.6,0.7,1.2,1,1.8c-0.1-1.4-0.1-3.7-0.1-6.2
	c-0.3,0-0.7-0.1-1-0.2v-0.7h3v0.7C227.6,21.3,227.3,21.4,227,21.4z"/>
<path d="M50.8,43.4c-0.9,0-1.7-0.1-2.2-0.1h-1.1v-0.7c0.3-0.1,0.7-0.2,1.1-0.2v-6.9c-0.4,0-0.8-0.1-1.1-0.2v-0.7h1.1
	c0.7,0,1.7,0,2.6,0c2.8,0,4.4,1.3,4.4,4.2C55.6,41.9,53.6,43.4,50.8,43.4z M51.1,35.7c-0.5,0-1,0-1.3,0v6.6c0.3,0.1,0.8,0.1,1.1,0.1
	c2,0,3.4-1,3.4-3.4C54.3,36.9,53.3,35.7,51.1,35.7z"/>
<path d="M64.4,35.6v4.5c0,2.3-1.2,3.4-3.4,3.4c-2.7,0-3.2-1.5-3.2-3v-4.9c-0.3,0-0.6-0.1-0.9-0.2v-0.7H60v0.7
	c-0.3,0.1-0.7,0.1-1,0.2v4.8c0,1.2,0.4,2.1,2.1,2.1c1.5,0,2.2-0.6,2.2-2.4v-4.6c-0.3,0-0.7-0.1-1-0.2v-0.7h3v0.7
	C65,35.5,64.7,35.6,64.4,35.6z"/>
<path d="M75.2,37c-0.1-0.4-0.1-0.8-0.2-1.1c-0.4-0.1-0.9-0.2-1.3-0.2c-1.9,0-2.7,1.5-2.7,3.4c0,2.1,0.9,3.3,3,3.3
	c0.7,0,1.5-0.2,2-0.4l0.1,1.1c-0.7,0.3-1.5,0.4-2.4,0.4c-2.6,0-4-1.6-4-4.2c0-2.7,1.3-4.6,4.2-4.6c0.7,0,1.4,0.1,2,0.3V37H75.2z"/>
<path d="M82.5,43.4v-0.7c0.3-0.1,0.7-0.1,1-0.2L83,41.2h-3.6l-0.5,1.4c0.3,0,0.7,0.1,1,0.2v0.7h-3v-0.7c0.2-0.1,0.5-0.1,0.8-0.1
	l2.9-7.8h1.4l2.9,7.8c0.2,0,0.5,0.1,0.8,0.1v0.7H82.5z M81.6,37.2c-0.2-0.4-0.3-0.8-0.4-1.3h0c-0.1,0.4-0.2,0.9-0.4,1.3l-1.1,3h3
	L81.6,37.2z"/>
<path d="M94.4,35.6v7.7h-1.5l-3.3-5.3c-0.4-0.6-0.7-1.2-1-1.8c0.1,1.5,0.1,3.8,0.1,6.3c0.3,0,0.7,0.1,1,0.2v0.7h-3.3v-0.7
	c0.3-0.1,0.7-0.2,1.1-0.2v-6.9c-0.4,0-0.8-0.1-1.1-0.2v-0.7h2.7l3.3,5.3c0.4,0.6,0.7,1.2,1,1.8c-0.1-1.4-0.1-3.7-0.1-6.2
	c-0.3,0-0.7-0.1-1-0.2v-0.7h3v0.7C95,35.5,94.7,35.6,94.4,35.6z"/>
<path d="M102.9,36.9h-0.8c-0.1-0.5-0.2-0.9-0.2-1.2h-1.8v6.8c0.4,0,0.8,0.1,1.1,0.2v0.7h-3.4v-0.7c0.3-0.1,0.7-0.2,1.1-0.2v-6.8
	h-1.8c0,0.3-0.1,0.7-0.2,1.2h-0.8v-2.1h6.7V36.9z"/>
<path d="M107.6,43.5c-2.6,0-3.8-1.7-3.8-4.3c0-2.9,1.8-4.5,4.1-4.5c2.3,0,3.8,1.5,3.8,4.3C111.7,41.9,109.8,43.5,107.6,43.5z
	 M107.7,35.7c-1.4,0-2.7,1.2-2.7,3.3c0,2.1,0.9,3.5,2.7,3.5c1.4,0,2.7-1.1,2.7-3.3C110.4,36.9,109.4,35.7,107.7,35.7z"/>
<path d="M120.9,35.6v7.7h-1.5l-3.3-5.3c-0.4-0.6-0.7-1.2-1-1.8c0.1,1.5,0.1,3.8,0.1,6.3c0.3,0,0.7,0.1,1,0.2v0.7h-3.3v-0.7
	c0.3-0.1,0.7-0.2,1.1-0.2v-6.9c-0.4,0-0.8-0.1-1.1-0.2v-0.7h2.7l3.3,5.3c0.4,0.6,0.7,1.2,1,1.8c-0.1-1.4-0.1-3.7-0.1-6.2
	c-0.3,0-0.7-0.1-1-0.2v-0.7h3v0.7C121.5,35.5,121.2,35.6,120.9,35.6z"/>
<path d="M129.4,43.4c-0.9,0-1.7-0.1-2.2-0.1h-1.1v-0.7c0.3-0.1,0.7-0.2,1.1-0.2v-6.9c-0.4,0-0.8-0.1-1.1-0.2v-0.7h1.1
	c0.7,0,1.7,0,2.6,0c2.8,0,4.4,1.3,4.4,4.2C134.2,41.9,132.2,43.4,129.4,43.4z M129.6,35.7c-0.5,0-1,0-1.3,0v6.6
	c0.3,0.1,0.8,0.1,1.1,0.1c2,0,3.4-1,3.4-3.4C132.9,36.9,131.9,35.7,129.6,35.7z"/>
<path d="M135.5,43.4v-0.7c0.3-0.1,0.7-0.2,1.1-0.2v-6.9c-0.4,0-0.8-0.1-1.1-0.2v-0.7h5.6v2h-0.8c-0.1-0.4-0.1-0.8-0.2-1.1h-2.3v2.8
	h1.8c0.1-0.3,0.1-0.6,0.2-0.9h0.7v2.6h-0.7c-0.1-0.3-0.1-0.6-0.2-0.9h-1.8v3.1h2.3c0-0.3,0.1-0.7,0.2-1.1h0.8v2H135.5z"/>
<path d="M149.2,40.3c0.2,0.5,0.4,1.1,0.6,1.8h0c0.2-0.6,0.3-1.2,0.6-1.9l1.7-4.6c-0.3,0-0.7-0.1-1-0.2v-0.7h3v0.7
	c-0.2,0.1-0.5,0.1-0.8,0.1l-2.8,7.8h-1.3l-2.8-7.8c-0.2,0-0.6-0.1-0.8-0.1v-0.7h3.1v0.7c-0.3,0.1-0.7,0.1-1,0.2L149.2,40.3z"/>
<path d="M158.7,43.4v-0.7c0.3-0.1,0.7-0.1,1-0.2l-0.5-1.4h-3.6l-0.5,1.4c0.3,0,0.7,0.1,1,0.2v0.7h-3v-0.7c0.2-0.1,0.5-0.1,0.8-0.1
	l2.9-7.8h1.4l2.9,7.8c0.2,0,0.5,0.1,0.8,0.1v0.7H158.7z M157.8,37.2c-0.2-0.4-0.3-0.8-0.4-1.3h0c-0.1,0.4-0.2,0.9-0.4,1.3l-1.1,3h3
	L157.8,37.2z"/>
<path d="M169.5,35.6v4.5c0,2.3-1.2,3.4-3.4,3.4c-2.7,0-3.2-1.5-3.2-3v-4.9c-0.3,0-0.6-0.1-0.9-0.2v-0.7h3.1v0.7
	c-0.3,0.1-0.7,0.1-1,0.2v4.8c0,1.2,0.4,2.1,2.1,2.1c1.5,0,2.2-0.6,2.2-2.4v-4.6c-0.3,0-0.7-0.1-1-0.2v-0.7h3v0.7
	C170.1,35.5,169.8,35.6,169.5,35.6z"/>
<path d="M174.9,43.4c-0.9,0-1.7-0.1-2.2-0.1h-1.1v-0.7c0.3-0.1,0.7-0.2,1.1-0.2v-6.9c-0.4,0-0.8-0.1-1.1-0.2v-0.7h1.1
	c0.7,0,1.7,0,2.6,0c2.8,0,4.4,1.3,4.4,4.2C179.7,41.9,177.7,43.4,174.9,43.4z M175.2,35.7c-0.5,0-1,0-1.3,0v6.6
	c0.3,0.1,0.8,0.1,1.1,0.1c2,0,3.4-1,3.4-3.4C178.5,36.9,177.4,35.7,175.2,35.7z"/>
<path d="M57.2,59.1l-1.7,5.5h-1.3l-1.3-3.7c-0.1-0.4-0.3-0.8-0.4-1.3h0c-0.1,0.6-0.3,1.1-0.5,1.6L51,64.6h-1.3L48,59.1
	c-0.3,0-0.6-0.1-0.8-0.2v-0.7h2.9v0.7c-0.3,0.1-0.6,0.1-0.9,0.1l0.8,2.8c0.1,0.5,0.3,1,0.4,1.4h0c0.1-0.5,0.3-1.1,0.4-1.6l1.1-3.6
	h1.2l1.1,3.6c0.2,0.8,0.3,1.1,0.4,1.6h0c0.1-0.4,0.2-0.8,0.4-1.4l0.8-2.9c-0.3,0-0.6-0.1-0.9-0.1v-0.7H58v0.7
	C57.7,59,57.4,59,57.2,59.1z"/>
<path d="M68.3,59.1l-1.7,5.5h-1.3L64,60.8c-0.1-0.4-0.3-0.8-0.4-1.3h0c-0.1,0.6-0.3,1.1-0.5,1.6l-1.1,3.4h-1.3l-1.6-5.5
	c-0.3,0-0.6-0.1-0.8-0.2v-0.7h2.9v0.7C61,59,60.7,59,60.4,59.1l0.8,2.8c0.1,0.5,0.3,1,0.4,1.4h0c0.1-0.5,0.3-1.1,0.4-1.6l1.1-3.6
	h1.2l1.1,3.6c0.2,0.8,0.3,1.1,0.4,1.6h0c0.1-0.4,0.2-0.8,0.4-1.4l0.8-2.9c-0.3,0-0.6-0.1-0.9-0.1v-0.7h2.8v0.7
	C68.9,59,68.6,59,68.3,59.1z"/>
<path d="M79.5,59.1l-1.7,5.5h-1.3l-1.3-3.7c-0.1-0.4-0.3-0.8-0.4-1.3h0c-0.1,0.6-0.3,1.1-0.5,1.6l-1.1,3.4H72l-1.6-5.5
	c-0.3,0-0.6-0.1-0.8-0.2v-0.7h2.9v0.7c-0.3,0.1-0.6,0.1-0.9,0.1l0.8,2.8c0.1,0.5,0.3,1,0.4,1.4h0c0.1-0.5,0.3-1.1,0.4-1.6l1.1-3.6
	h1.2l1.1,3.6c0.2,0.8,0.3,1.1,0.4,1.6h0c0.1-0.4,0.2-0.8,0.4-1.4l0.8-2.9c-0.3,0-0.6-0.1-0.9-0.1v-0.7h2.8v0.7
	C80.1,59,79.8,59,79.5,59.1z"/>
<path d="M82.2,63.9c0,0.4-0.4,0.8-0.8,0.8c-0.4,0-0.8-0.4-0.8-0.8c0-0.4,0.4-0.8,0.8-0.8C81.8,63.1,82.2,63.5,82.2,63.9z"/>
<path d="M88.5,64.6v-4.1c0-0.9-0.3-1.4-1.1-1.4c-1,0-1.8,1.1-1.8,2.5v2.2c0.4,0,0.7,0.1,1,0.2v0.7h-3.3v-0.7
	c0.3-0.1,0.7-0.2,1.1-0.2v-7.6c-0.3-0.1-0.7-0.1-1.1-0.1v-0.7c0.6-0.1,1.5-0.1,2.2-0.1v3c0,0.4,0,0.9-0.1,1.3l0,0
	c0.4-0.9,1.1-1.4,2.2-1.4c1.5,0,1.9,0.9,1.9,2v3.6c0.4,0,0.8,0.1,1.1,0.2v0.7H88.5z"/>
<path d="M97.1,61.3h-4.1c0,1.7,0.7,2.4,2,2.4c0.7,0,1.3-0.2,1.9-0.4l0.1,0.9c-0.6,0.3-1.4,0.4-2.1,0.4c-2,0-3-1-3-3.3
	c0-1.9,1-3.3,2.8-3.3c1.8,0,2.5,1.2,2.5,2.7C97.1,60.9,97.1,61.1,97.1,61.3z M94.5,59c-0.8,0-1.4,0.6-1.5,1.6h3
	C95.9,59.6,95.4,59,94.5,59z"/>
<path d="M98.3,64.6v-0.7c0.3-0.1,0.7-0.2,1.1-0.2v-4.6c-0.3-0.1-0.7-0.1-1.1-0.1v-0.7c0.6-0.1,1.5-0.1,2.3-0.1v5.5
	c0.4,0,0.8,0.1,1.1,0.2v0.7H98.3z M100,57.2c-0.4,0-0.8-0.3-0.8-0.8c0-0.4,0.3-0.7,0.8-0.7c0.4,0,0.8,0.3,0.8,0.7
	C100.7,56.8,100.4,57.2,100,57.2z"/>
<path d="M105.3,67.9c-1.6,0-2.7-0.7-2.7-1.9c0-0.8,0.5-1.4,1-1.6c-0.4-0.2-0.6-0.5-0.6-0.9c0-0.4,0.3-0.9,0.7-1.1
	c-0.6-0.3-0.9-1-0.9-1.8c0-1.3,1-2.4,2.8-2.4c0.3,0,0.7,0,1,0.1h2.2v0.9h-1.1c0.3,0.3,0.5,0.7,0.5,1.2c0,1.4-0.9,2.4-2.8,2.4
	c-0.3,0-0.6,0-0.8-0.1c-0.3,0.1-0.4,0.3-0.4,0.5c0,0.4,0.3,0.5,1.1,0.5h1.2c1.4,0,2.2,0.7,2.2,1.8C108.7,66.8,107.3,67.9,105.3,67.9
	z M106.2,64.6H105c-0.1,0-0.3,0-0.4,0c-0.5,0.3-0.8,0.7-0.8,1.2c0,0.8,0.7,1.2,1.7,1.2c1.3,0,2.1-0.5,2.1-1.4
	C107.6,65,107.1,64.6,106.2,64.6z M105.6,59c-1,0-1.6,0.6-1.6,1.5c0,0.9,0.6,1.5,1.6,1.5c1,0,1.6-0.5,1.6-1.5
	C107.1,59.5,106.6,59,105.6,59z"/>
<path d="M110.1,61.8v-0.9h3v0.9H110.1z"/>
<path d="M120.2,59.1l-2,5.5h-1.4l-2-5.5c-0.3,0-0.6-0.1-0.8-0.2v-0.7h2.9v0.7c-0.3,0.1-0.6,0.1-0.9,0.1l1.1,3.1
	c0.1,0.4,0.3,0.8,0.4,1.2h0c0.1-0.4,0.2-0.8,0.4-1.2l1.1-3.1c-0.3,0-0.6-0.1-0.9-0.1v-0.7h2.9v0.7C120.7,59,120.4,59,120.2,59.1z"/>
<path d="M125.9,64.6c0-0.4,0-0.9,0.1-1.3l0,0c-0.4,0.9-1.1,1.4-2.1,1.4c-1.6,0-2.3-1.1-2.3-3c0-2.2,1.3-3.6,3.3-3.6
	c0.3,0,0.7,0,1.1,0.1v-2.1c-0.3-0.1-0.7-0.1-1.1-0.1v-0.7c0.6-0.1,1.5-0.1,2.3-0.1v8.4c0.3,0.1,0.7,0.1,1.1,0.1v0.7
	C127.5,64.6,126.6,64.6,125.9,64.6z M125.9,59.2c-0.4-0.1-0.8-0.1-1.1-0.1c-1.2,0-2,0.7-2,2.5c0,1.4,0.4,2.1,1.4,2.1
	c1.1,0,1.7-1.3,1.7-2.4V59.2z"/>
<path d="M130.8,63.9c0,0.4-0.4,0.8-0.8,0.8c-0.4,0-0.8-0.4-0.8-0.8c0-0.4,0.4-0.8,0.8-0.8C130.5,63.1,130.8,63.5,130.8,63.9z"/>
<path d="M135.1,64.7c-1.6,0-2.9-0.7-2.9-3c0-2,1-3.5,3.2-3.5c0.5,0,1.1,0.1,1.5,0.2v1.8h-0.7c-0.1-0.4-0.1-0.7-0.2-1
	c-0.2-0.1-0.5-0.1-0.8-0.1c-1.2,0-1.8,0.9-1.8,2.4c0,1.3,0.4,2.3,1.9,2.3c0.5,0,1.1-0.1,1.6-0.3l0.1,1
	C136.6,64.5,135.9,64.7,135.1,64.7z"/>
<path d="M143.1,64.6v-4.1c0-0.9-0.3-1.4-1.1-1.4c-1,0-1.8,1.1-1.8,2.5v2.2c0.4,0,0.7,0.1,1,0.2v0.7h-3.3v-0.7
	c0.3-0.1,0.7-0.2,1.1-0.2v-7.6c-0.3-0.1-0.7-0.1-1.1-0.1v-0.7c0.6-0.1,1.5-0.1,2.2-0.1v3c0,0.4,0,0.9-0.1,1.3l0,0
	c0.4-0.9,1.1-1.4,2.2-1.4c1.5,0,1.9,0.9,1.9,2v3.6c0.4,0,0.8,0.1,1.1,0.2v0.7H143.1z"/>
</svg>
