<svg xmlns="http://www.w3.org/2000/svg" viewBox="0 0 64.67 27.93"><defs><style>.cls-1{fill:#231f20;}</style></defs><g id="Layer_2" data-name="Layer 2"><g id="Layer_1-2" data-name="Layer 1"><path class="cls-1" d="M10.78,22.34h-.56V20.75H8.61v1.54H8.06V19.06h.55v1.27H10.2V19.07h.54v1.54a14.64,14.64,0,0,0,0,1.66Z"/><path class="cls-1" d="M13.57,20.93a2.81,2.81,0,0,0,0-.58.74.74,0,0,0-.82-.47,2.5,2.5,0,0,0-.85.15v.34h0a1.79,1.79,0,0,1,.75-.17.43.43,0,0,1,.41.17.57.57,0,0,1,0,.29h-.08c-.88.09-1.43.29-1.43.91a.75.75,0,0,0,.84.75,1.14,1.14,0,0,0,.68-.23v.16h.49c0-.31,0-.61,0-.92Zm-.5.11v.75a.78.78,0,0,1-.53.2.42.42,0,0,1-.47-.42c0-.41.46-.47,1-.54Z"/><path class="cls-1" d="M16.64,20v2.16a.6.6,0,0,0,0,.19h-.5v-.17a1.36,1.36,0,0,1-.75.26.89.89,0,0,1-.55-.16,1.18,1.18,0,0,1-.33-1V21a8,8,0,0,0,0-1H15l0,1v.43c0,.22,0,.61.51.61a1,1,0,0,0,.61-.24V20h.52Z"/><path class="cls-1" d="M18.67,22v.32a1.5,1.5,0,0,1-.37.05.66.66,0,0,1-.58-.25c-.08-.13-.08-.24-.08-.75v-1h-.39V20h.37v-.56l.5-.12h0V20h.54v.32h-.54v1.24c0,.34.05.44.29.44a.49.49,0,0,0,.24,0Z"/><path class="cls-1" d="M21.29,21.75a.94.94,0,0,1-.35.2,1.25,1.25,0,0,1-.43.07.76.76,0,0,1-.82-.83h1.74a1.47,1.47,0,0,0-.27-1,1,1,0,0,0-.8-.31,1.25,1.25,0,1,0,.12,2.5,1.82,1.82,0,0,0,.75-.17h0c0-.14,0-.28,0-.42Zm-.36-.91H19.69a.64.64,0,0,1,.65-.64.54.54,0,0,1,.53.37A2.61,2.61,0,0,1,20.93,20.84Z"/><path class="cls-1" d="M26,22v.39h-2V19.1H26a1.17,1.17,0,0,1,0,.36H24.48v1h1.38a2.16,2.16,0,0,0,0,.36H24.51v1.09H26Z"/><path class="cls-1" d="M28.5,21.79a1.18,1.18,0,0,1-.05.41,1.38,1.38,0,0,1-.67.16,1.15,1.15,0,0,1-1.22-1.22,1.2,1.2,0,0,1,1.23-1.29,1.49,1.49,0,0,1,.66.15v.36a.94.94,0,0,0-.54-.18.74.74,0,0,0-.75.88c0,.63.37.85.75.85a.9.9,0,0,0,.59-.16Z"/><path class="cls-1" d="M31.44,21.12a1.31,1.31,0,0,0-.29-.89,1.43,1.43,0,0,0-1.8,0,1.48,1.48,0,0,0,0,1.86,1.37,1.37,0,0,0,1.73,0,1.1,1.1,0,0,0,.32-.55,2.12,2.12,0,0,0,0-.44Zm-.53,0a1.41,1.41,0,0,1-.11.61.62.62,0,0,1-.56.31A.72.72,0,0,1,30,22a.88.88,0,0,1-.39-.84,1,1,0,0,1,.15-.64.6.6,0,0,1,.53-.27.59.59,0,0,1,.53.26A1.49,1.49,0,0,1,30.91,21.12Z"/><path class="cls-1" d="M32.75,22.33h-.52V20.66c0-.63,0-1.31,0-1.9l.54-.1c0,.61,0,1.22,0,1.82,0,1,0,1.35,0,1.79Z"/><path class="cls-1" d="M35.65,21.75a.94.94,0,0,1-.35.2,1.23,1.23,0,0,1-.42.07.76.76,0,0,1-.82-.83h1.69a1.4,1.4,0,0,0-.25-1,1.06,1.06,0,0,0-.81-.31,1.25,1.25,0,1,0,.12,2.5,1.79,1.79,0,0,0,.75-.17,1.5,1.5,0,0,1,0-.42Zm-.4-.91H34.06a.64.64,0,0,1,.64-.64.53.53,0,0,1,.53.37A.62.62,0,0,1,35.25,20.84Z"/><path class="cls-1" d="M39.47,20.49c.35.15.82.35.82.93s-.4,1-1.25,1a2.21,2.21,0,0,1-1-.2,1.6,1.6,0,0,1,0-.43h0A1.46,1.46,0,0,0,39,22c.5,0,.75-.24.75-.52s-.29-.45-.61-.56l-.24-.1c-.35-.15-.81-.36-.81-.91a.79.79,0,0,1,.15-.49,1.27,1.27,0,0,1,1-.4,2.62,2.62,0,0,1,.88.15v.44h0a1.78,1.78,0,0,0-.81-.21c-.41,0-.66.18-.66.45a.4.4,0,0,0,.25.36,1.84,1.84,0,0,0,.38.17Z"/><path class="cls-1" d="M41.58,19.93a3,3,0,0,1-.52.09,11.71,11.71,0,0,1,.07,1.57v1.85h.52v-1.1h.21A1.35,1.35,0,0,0,43.36,21a1,1,0,0,0-1-1.13,1.12,1.12,0,0,0-.75.25Zm0,2.05V20.46a1,1,0,0,1,.56-.19.68.68,0,0,1,.67.75.93.93,0,0,1-1,.95Z"/><path class="cls-1" d="M46.11,21.75a1,1,0,0,1-.35.2,1.25,1.25,0,0,1-.43.07.8.8,0,0,1-.63-.27.86.86,0,0,1-.18-.58h1.7a1.35,1.35,0,0,0-.27-1,1,1,0,0,0-.8-.32,1.26,1.26,0,0,0,.12,2.51,1.79,1.79,0,0,0,.75-.17,1.46,1.46,0,0,1,0-.42Zm-.36-2.84h-.6a7.56,7.56,0,0,1-.3.71h.36c.16-.24.33-.48.51-.71Zm0,1.93H44.52a.64.64,0,0,1,.64-.64.55.55,0,0,1,.54.37A.81.81,0,0,1,45.75,20.84Z"/><path class="cls-1" d="M48.83,21.79a1.46,1.46,0,0,1,0,.41,1.45,1.45,0,0,1-.68.16,1.15,1.15,0,0,1-1.21-1.22,1.19,1.19,0,0,1,1.22-1.29,1.56,1.56,0,0,1,.67.15,1,1,0,0,1,0,.36.94.94,0,0,0-.54-.18.75.75,0,0,0-.75.88c0,.63.38.85.75.85a.88.88,0,0,0,.63-.23Z"/><path class="cls-1" d="M50,19.27h-.54v-.44l.54,0Zm0,3.06h-.54v-1A8.16,8.16,0,0,0,49.4,20v0a2.18,2.18,0,0,0,.53-.09h0v2.45Z"/><path class="cls-1" d="M52.76,20.93a2.81,2.81,0,0,0,0-.58c-.1-.35-.45-.47-.82-.47a2.48,2.48,0,0,0-.84.15v.34a1.82,1.82,0,0,1,.75-.17.43.43,0,0,1,.41.17.58.58,0,0,1,.05.29h-.09c-.88.09-1.42.29-1.42.91a.75.75,0,0,0,.82.75,1.14,1.14,0,0,0,.69-.23v.16h.5a7.06,7.06,0,0,1,0-.92Zm-.5.11v.75a.79.79,0,0,1-.53.2.42.42,0,0,1-.47-.42c0-.41.46-.47,1-.54Z"/><path class="cls-1" d="M54.19,22.33h-.51V20.66c0-.63,0-1.31,0-1.9l.52-.1v1.82c0,1,0,1.35,0,1.79Z"/><path class="cls-1" d="M55.64,19.27h-.55a.6.6,0,0,0,0-.19v-.25l.56-.08a3.08,3.08,0,0,0,0,.43Zm0,3.06h-.53v-1a9.51,9.51,0,0,0,0-1.31v0a4.71,4.71,0,0,0,.52-.09h0v2.45Z"/><path class="cls-1" d="M57.58,20.93c.2.06.64.21.64.69a.67.67,0,0,1-.28.55,1.25,1.25,0,0,1-.75.22,1.88,1.88,0,0,1-.66-.12h-.08v0a2.54,2.54,0,0,0,0-.39h0a1,1,0,0,0,.68.22c.39,0,.53-.2.53-.34s-.21-.29-.51-.38l-.2-.1c-.19-.06-.64-.19-.64-.66s.45-.71,1-.71a1.9,1.9,0,0,1,.71.13.9.9,0,0,1,0,.36h0a1.07,1.07,0,0,0-.58-.12.74.74,0,0,0-.21,0,.28.28,0,0,0-.27.28c0,.14.2.26.51.34Z"/><path class="cls-1" d="M60.89,21.75a.94.94,0,0,1-.35.2,1.25,1.25,0,0,1-.43.07.84.84,0,0,1-.63-.25.86.86,0,0,1-.18-.58H61a1.41,1.41,0,0,0-.27-1,1,1,0,0,0-.73-.34,1.26,1.26,0,0,0,.12,2.51,1.75,1.75,0,0,0,.75-.17c0-.14,0-.28,0-.42Zm-.37-2.84H60c-.11.31-.25.6-.3.71H60c.16-.24.33-.48.51-.71Zm0,1.93H59.3A.64.64,0,0,1,60,20.2a.55.55,0,0,1,.53.37A.61.61,0,0,1,60.52,20.84Z"/><path class="cls-1" d="M63.75,21.75a.94.94,0,0,1-.35.2A1.29,1.29,0,0,1,63,22a.81.81,0,0,1-.63-.25.92.92,0,0,1-.19-.58h1.7a1.36,1.36,0,0,0-.26-1,1,1,0,0,0-.8-.31,1.25,1.25,0,1,0,.12,2.5,1.75,1.75,0,0,0,.75-.17,2.94,2.94,0,0,1,0-.42Zm-.35-.91H62.17a.66.66,0,0,1,.64-.64.55.55,0,0,1,.54.37A.86.86,0,0,1,63.4,20.84Z"/><path class="cls-1" d="M14.8,24.27a8.24,8.24,0,0,1,0,1.11h-.28a1.61,1.61,0,0,0-1.08.32,1.22,1.22,0,0,0-.43,1,1.11,1.11,0,0,0,1.78,1v.17h.54V24.19l-.52.1Zm0,3a.85.85,0,0,1-.55.2.64.64,0,0,1-.5-.21.82.82,0,0,1-.18-.56,1,1,0,0,1,.28-.75,1.15,1.15,0,0,1,.71-.22h.25C14.81,26.53,14.81,26.66,14.8,27.27Z"/><path class="cls-1" d="M18.23,27.25a1.58,1.58,0,0,1-.36.2,1.25,1.25,0,0,1-.43.07.74.74,0,0,1-.81-.82h1.73a1.34,1.34,0,0,0-.26-1,1.06,1.06,0,0,0-.8-.32,1.26,1.26,0,0,0,.11,2.51,1.62,1.62,0,0,0,.78-.17c0-.14,0-.27,0-.41Zm-.38-.91H16.63a.66.66,0,0,1,.64-.64.56.56,0,0,1,.54.36A.9.9,0,0,1,17.85,26.34Z"/><path class="cls-1" d="M22,26c.36.14.83.33.83.93s-.41,1-1.25,1a2.14,2.14,0,0,1-1-.2,1.61,1.61,0,0,1,0-.42h.05a1.47,1.47,0,0,0,.86.28c.5,0,.72-.24.72-.52s-.29-.45-.61-.56l-.24-.1c-.35-.15-.81-.36-.81-.92A.71.71,0,0,1,20.8,25a1.21,1.21,0,0,1,1-.4,2.84,2.84,0,0,1,.88.14,1.39,1.39,0,0,1,0,.41,1.64,1.64,0,0,0-.81-.22c-.4,0-.66.18-.66.45a.43.43,0,0,0,.25.37l.38.16Z"/><path class="cls-1" d="M25.78,25.45V27.8h-.5v-.19a1.31,1.31,0,0,1-.75.26.94.94,0,0,1-.56-.16,1.16,1.16,0,0,1-.31-1V25.45h.5V26.9c0,.23,0,.61.5.61a1.05,1.05,0,0,0,.61-.24V25.45a4.34,4.34,0,0,0,.51,0Z"/><path class="cls-1" d="M27.23,24.77h-.54v-.44h0l.54,0a3.23,3.23,0,0,0,0,.44Zm0,3.06H26.7v-1a10.3,10.3,0,0,0,0-1.36,1.2,1.2,0,0,0,.53-.09h0v2.42Z"/><path class="cls-1" d="M29.17,26.44c.19.06.64.2.64.69a.66.66,0,0,1-.28.54,1.19,1.19,0,0,1-.78.22,1.69,1.69,0,0,1-.67-.12H28v0a2.54,2.54,0,0,0,0-.39h.06a1,1,0,0,0,.67.22c.39,0,.53-.2.53-.34s-.21-.28-.51-.38l-.16,0c-.19-.06-.64-.2-.64-.67s.45-.71,1-.71a1.94,1.94,0,0,1,.71.13v.39h-.05a1.18,1.18,0,0,0-.63-.18h-.21a.28.28,0,0,0-.27.28c0,.14.2.26.51.35Z"/><path class="cls-1" d="M31.5,26.44c.19.06.64.2.64.69a.68.68,0,0,1-.27.54,1.25,1.25,0,0,1-.75.22,1.69,1.69,0,0,1-.67-.12h-.07v-.43h.05a1,1,0,0,0,.67.22c.39,0,.54-.2.54-.34s-.21-.28-.51-.38l-.16,0c-.2-.06-.64-.2-.64-.67s.44-.71,1-.71a1.89,1.89,0,0,1,.7.13v0a.9.9,0,0,1-.05.36,1.18,1.18,0,0,0-.63-.18.74.74,0,0,0-.21,0,.29.29,0,0,0-.28.28c0,.14.21.26.51.35Z"/><path class="cls-1" d="M34.87,27.25a1.22,1.22,0,0,1-.35.2,1.25,1.25,0,0,1-.43.07.74.74,0,0,1-.81-.82H35a1.33,1.33,0,0,0-.26-1,1,1,0,0,0-.8-.32A1.26,1.26,0,0,0,34,27.92a1.68,1.68,0,0,0,.79-.17,2.85,2.85,0,0,1,0-.41Zm-.37-.91H33.28a.65.65,0,0,1,.64-.64.53.53,0,0,1,.53.36A.92.92,0,0,1,34.5,26.34Z"/><path class="cls-1" d="M39.66,26.62a1.3,1.3,0,0,0-.3-.89,1.27,1.27,0,0,0-2.12.93,1.24,1.24,0,0,0,.34.93,1.17,1.17,0,0,0,.87.31,1.2,1.2,0,0,0,.85-.28,1,1,0,0,0,.31-.56,1.41,1.41,0,0,0,0-.46Zm-.53,0a1.41,1.41,0,0,1-.11.61.59.59,0,0,1-.56.31.72.72,0,0,1-.29-.06.86.86,0,0,1-.39-.83,1.12,1.12,0,0,1,.15-.65.6.6,0,0,1,.53-.27A.57.57,0,0,1,39,26,1.32,1.32,0,0,1,39.13,26.62Z"/><path class="cls-1" d="M42.28,27.28a1.16,1.16,0,0,1-.05.42,1.32,1.32,0,0,1-.67.15,1.15,1.15,0,0,1-1.22-1.22,1.2,1.2,0,0,1,1.23-1.28,1.56,1.56,0,0,1,.67.15v.36a1,1,0,0,0-.55-.18.87.87,0,0,0,0,1.73,1,1,0,0,0,.63-.22Z"/><path class="cls-1" d="M44.74,27.28v.42a1.35,1.35,0,0,1-.68.15,1.16,1.16,0,0,1-1.31-1.19A1.2,1.2,0,0,1,44,25.38a1.6,1.6,0,0,1,.68.15v.36a1.06,1.06,0,0,0-.55-.18.74.74,0,0,0-.75.88c0,.64.37.85.75.85a1,1,0,0,0,.63-.22Z"/><path class="cls-1" d="M45.9,24.77h-.54v-.44l.54,0a3.23,3.23,0,0,0,0,.44Zm0,3.06h-.54v-1a8.83,8.83,0,0,0,0-1.36,1.14,1.14,0,0,0,.52-.09h0v2.42Z"/><path class="cls-1" d="M48.43,24.27a8.25,8.25,0,0,1,0,1.11h-.29a1.6,1.6,0,0,0-1.07.32,1.28,1.28,0,0,0-.43,1,1.11,1.11,0,0,0,1.1,1.19,1.14,1.14,0,0,0,.68-.23v.17H49V24.19l-.53.1Zm0,3a.81.81,0,0,1-.53.2.64.64,0,0,1-.51-.21.83.83,0,0,1-.19-.56,1,1,0,0,1,.29-.75,1.11,1.11,0,0,1,.71-.22h.24C48.45,26.53,48.45,26.66,48.43,27.27Z"/><path class="cls-1" d="M51.86,27.25a1.33,1.33,0,0,1-.35.2,1.25,1.25,0,0,1-.43.07.87.87,0,0,1-.63-.24,1,1,0,0,1-.2-.58h1.69a1.34,1.34,0,0,0-.26-1,1,1,0,0,0-.8-.32A1.26,1.26,0,0,0,51,27.92a1.51,1.51,0,0,0,.75-.18,2.67,2.67,0,0,1,0-.4Zm-.36-.91H50.27a.65.65,0,0,1,.64-.64.54.54,0,0,1,.53.36A.94.94,0,0,1,51.5,26.34Z"/><path class="cls-1" d="M54.91,27.83h-.49V27a6,6,0,0,0,0-.85.43.43,0,0,0-.44-.36,1.11,1.11,0,0,0-.65.27v1.75h-.51V27a8.41,8.41,0,0,0-.06-1.44l.52-.09v.24a1.55,1.55,0,0,1,.86-.28.84.84,0,0,1,.41.08.7.7,0,0,1,.28.31,1.16,1.16,0,0,1,.07.55v1.5Z"/><path class="cls-1" d="M56.93,27.47v.32a1.09,1.09,0,0,1-.36,0,.7.7,0,0,1-.58-.23c-.08-.14-.08-.25-.08-.8v-.94h-.36a3.06,3.06,0,0,0,0-.32h.33v-.56a4.05,4.05,0,0,0,.5-.12v.7h.55a1.71,1.71,0,0,0,0,.32h-.53v1.24c0,.34,0,.44.28.44a.61.61,0,0,0,.24,0Z"/><path class="cls-1" d="M59.43,26.43a5.61,5.61,0,0,0,0-.58.74.74,0,0,0-.82-.47,2.52,2.52,0,0,0-.86.12v.34a1.92,1.92,0,0,1,.75-.18.43.43,0,0,1,.4.17.56.56,0,0,1,.05.28h-.09c-.88.11-1.43.3-1.43.92a.75.75,0,0,0,.84.75,1.12,1.12,0,0,0,.68-.23v.16h.49c0-.3,0-.61,0-.92Zm-.5.11v.75a.77.77,0,0,1-.53.21.42.42,0,0,1-.47-.42c0-.41.46-.48,1-.55Z"/><path class="cls-1" d="M60.86,27.83h-.52V26.2c0-.63,0-1.31,0-1.9l.53-.1c0,.61,0,1.22,0,1.82,0,1,0,1.36,0,1.8Z"/><path class="cls-1" d="M63.75,27.25a1.1,1.1,0,0,1-.35.2,1.25,1.25,0,0,1-.43.07.86.86,0,0,1-.63-.24,1,1,0,0,1-.19-.58h1.7a1.34,1.34,0,0,0-.26-1,1,1,0,0,0-.8-.32,1.26,1.26,0,0,0,.12,2.51,1.63,1.63,0,0,0,.84-.17,2.81,2.81,0,0,1,0-.41Zm-.35-.91H62.17a.66.66,0,0,1,.64-.64.55.55,0,0,1,.54.36A.92.92,0,0,1,63.4,26.34Z"/><path class="cls-1" d="M49.59,8c.85.26,2.78.88,2.78,3a2.89,2.89,0,0,1-1.18,2.36,5.49,5.49,0,0,1-3.4,1,8.25,8.25,0,0,1-2.91-.5l-.32-.11-.1-.18c.07-.75.07-.88.12-1.69l.22,0a4.72,4.72,0,0,0,3,.94c1.68,0,2.29-.89,2.29-1.5,0-.92-.91-1.22-2.2-1.62l-.69-.22c-.87-.26-2.78-.84-2.78-2.9s1.91-3.08,4.29-3.08A8.77,8.77,0,0,1,51.75,4l.1.15c-.07.75-.1.82-.16,1.57l-.19.09A4.89,4.89,0,0,0,48.75,5a3.49,3.49,0,0,0-.91.11,1.34,1.34,0,0,0-1.2,1.19c0,.86.87,1.13,2.19,1.5Z"/><path class="cls-1" d="M64.66,8.75a5.76,5.76,0,0,0-1.28-3.87,5.19,5.19,0,0,0-3.81-1.44,5.55,5.55,0,0,0-4,1.4,5.55,5.55,0,0,0-1.5,4.06A5.63,5.63,0,0,0,55.62,13a5.24,5.24,0,0,0,3.79,1.34A5.18,5.18,0,0,0,63.1,13.1a4.65,4.65,0,0,0,1.4-2.41A7.91,7.91,0,0,0,64.66,8.75Zm-2.31.07a5.78,5.78,0,0,1-.49,2.66,2.59,2.59,0,0,1-2.42,1.34,2.86,2.86,0,0,1-1.25-.26c-1.68-.79-1.7-2.82-1.7-3.61a5.12,5.12,0,0,1,.64-2.82A2.66,2.66,0,0,1,59.47,5a2.49,2.49,0,0,1,2.25,1.14A6.06,6.06,0,0,1,62.35,8.82Z"/><path class="cls-1" d="M42,8.91a1.27,1.27,0,0,1-2.53,0,1.26,1.26,0,0,1,1.26-1.36A1.27,1.27,0,0,1,42,8.91Z"/><path class="cls-1" d="M12.86.12V4c0,3.36.06,6.7.23,10.06l-.11.12c-1.8,0-2.25,0-3.82.05L9,14.11c.1-2.81.1-3.47.07-6.18-.86,0-1.71,0-2.55,0S4.91,7.9,4,8c0,2.9,0,3.62.17,6.1L4,14.18c-1.86,0-2.25,0-3.8.05l-.08-.12c0-1.68.08-2.65.08-4.45C.23,4.7.1,2.25,0,.18L.13.06C2,.06,2.3.06,3.93,0L4,.12,4,5.37H6.24c1,0,1.89,0,2.83,0,0-2.35,0-2.93-.17-5.19L9,.06c1.78,0,2.06,0,3.75-.06Z"/><path class="cls-1" d="M25.17,11.25a6.82,6.82,0,0,1-3.31.85A3,3,0,0,1,19.21,11a2.75,2.75,0,0,1-.46-1.26l6.85-.12.13-.14a11.65,11.65,0,0,0-.33-3,4,4,0,0,0-3.1-3,5.81,5.81,0,0,0-1.5-.18,5.15,5.15,0,0,0-5.54,5.52,6.37,6.37,0,0,0,.49,2.65c1.23,2.7,4.12,2.93,5.64,2.93a8.66,8.66,0,0,0,3.66-.71l.12-.16.15-2.25ZM18.75,7.64a2.34,2.34,0,0,1,1-1.94,1.59,1.59,0,0,1,.85-.22,1.55,1.55,0,0,1,1.36.7,2.47,2.47,0,0,1,.32,1.38Z"/><path class="cls-1" d="M34.13,7.64c1.17.42,2.8,1,2.8,3.2a3.23,3.23,0,0,1,0,.44c-.37,2.86-3.56,3.13-5.18,3.13a9.45,9.45,0,0,1-3.48-.67l-.1-.18c.08-1,.1-1.22.15-2.25l.18-.06a4.8,4.8,0,0,0,.85.56,5.66,5.66,0,0,0,2.25.56c1.19,0,1.68-.54,1.68-1,0-.75-.94-1-1.5-1.19L31,9.85c-1-.36-2.76-1-2.76-3.14A2.87,2.87,0,0,1,28.78,5C29.89,3.45,32,3.37,33,3.37a11.47,11.47,0,0,1,3.24.5l.11.12-.21,2.18-.2.06a4.78,4.78,0,0,0-2.64-.84c-1.32,0-1.5.66-1.5.9,0,.56.58.75,1.29,1Z"/></g></g></svg>