<?xml version="1.0" encoding="utf-8"?>
<!-- Generator: Adobe Illustrator 26.0.2, SVG Export Plug-In . SVG Version: 6.00 Build 0)  -->
<svg version="1.1" id="Layer_1" xmlns="http://www.w3.org/2000/svg" xmlns:xlink="http://www.w3.org/1999/xlink" x="0px" y="0px"
	 viewBox="0 0 64.7 15.2" style="enable-background:new 0 0 64.7 15.2;" xml:space="preserve">
<style type="text/css">
	.st0{fill:#FFFFFF;}
</style>
<path class="st0" d="M49.6,8c0.8,0.3,2.8,0.9,2.8,3c0,0.9-0.4,1.8-1.2,2.4c-1,0.7-2.2,1.1-3.4,1c-1,0-2-0.2-2.9-0.5l-0.3-0.1
	l-0.1-0.2c0.1-0.8,0.1-0.9,0.1-1.7h0.2c0.9,0.6,1.9,1,3,0.9c1.7,0,2.3-0.9,2.3-1.5c0-0.9-0.9-1.2-2.2-1.6l-0.7-0.2
	c-0.9-0.3-2.8-0.8-2.8-2.9s1.9-3.1,4.3-3.1c1,0,2.1,0.2,3,0.5l0.1,0.2c-0.1,0.8-0.1,0.8-0.2,1.6l-0.2,0.1C50.7,5.3,49.7,5,48.8,5
	c-0.3,0-0.6,0-0.9,0.1c-0.6,0.1-1.1,0.6-1.2,1.2c0,0.9,0.9,1.1,2.2,1.5L49.6,8z"/>
<path class="st0" d="M64.7,8.8c0.1-1.4-0.4-2.8-1.3-3.9c-1-1-2.4-1.5-3.8-1.4c-1.5-0.1-2.9,0.4-4,1.4c-1,1.1-1.6,2.6-1.5,4.1
	c-0.1,1.5,0.5,3,1.5,4.1c1,0.9,2.4,1.4,3.8,1.3c1.3,0.1,2.7-0.4,3.7-1.2c0.7-0.6,1.2-1.5,1.4-2.4C64.6,10.1,64.7,9.4,64.7,8.8z
	 M62.4,8.8c0,0.9-0.1,1.8-0.5,2.7c-0.5,0.9-1.4,1.4-2.4,1.3c-0.4,0-0.9-0.1-1.2-0.3c-1.7-0.8-1.7-2.8-1.7-3.6c-0.1-1,0.2-2,0.6-2.8
	c0.5-0.8,1.4-1.2,2.3-1.1c0.9-0.1,1.8,0.4,2.2,1.1C62.1,7,62.3,7.9,62.4,8.8z"/>
<path class="st0" d="M42,8.9c-0.1,0.7-0.7,1.2-1.4,1.2C40,10,39.5,9.5,39.5,8.9c-0.1-0.7,0.5-1.3,1.2-1.4c0,0,0.1,0,0.1,0
	C41.4,7.5,42,8.1,42,8.9C42,8.8,42,8.9,42,8.9z"/>
<path class="st0" d="M12.9,0.1V4c0,3.4,0.1,6.7,0.2,10.1L13,14.2c-1.8,0-2.2,0-3.8,0.1L9,14.1c0.1-2.8,0.1-3.5,0.1-6.2
	c-0.9,0-1.7,0-2.6,0S4.9,7.9,4,8c0,2.9,0,3.6,0.2,6.1L4,14.2c-1.9,0-2.2,0-3.8,0.1l-0.1-0.1c0-1.7,0.1-2.6,0.1-4.4
	c0-5-0.1-7.4-0.2-9.5l0.1-0.1c1.9,0,2.2,0,3.8-0.1L4,0.1v5.2h2.2c1,0,1.9,0,2.8,0c0-2.3,0-2.9-0.2-5.2L9,0.1c1.8,0,2.1,0,3.8-0.1
	L12.9,0.1z"/>
<path class="st0" d="M25.2,11.3c-1,0.6-2.2,0.9-3.3,0.9c-1,0.1-2-0.3-2.7-1.1c-0.3-0.4-0.4-0.8-0.5-1.3l6.9-0.1l0.1-0.1
	c0-1-0.1-2-0.3-3c-0.4-1.5-1.6-2.7-3.1-3c-0.5-0.1-1-0.2-1.5-0.2C18,3.1,15.5,5.2,15.3,8c0,0.3,0,0.5,0,0.8c0,0.9,0.1,1.8,0.5,2.6
	c1.2,2.7,4.1,2.9,5.6,2.9c1.3,0,2.5-0.2,3.7-0.7l0.1-0.2l0.1-2.2L25.2,11.3z M18.8,7.6c0-0.8,0.4-1.5,1-1.9c0.3-0.2,0.6-0.2,0.9-0.2
	c0.5,0,1.1,0.2,1.4,0.7c0.2,0.4,0.4,0.9,0.3,1.4L18.8,7.6z"/>
<path class="st0" d="M34.1,7.6c1.2,0.4,2.8,1,2.8,3.2c0,0.1,0,0.3,0,0.4c-0.4,2.9-3.6,3.1-5.2,3.1c-1.2,0-2.4-0.2-3.5-0.7l-0.1-0.2
	c0.1-1,0.1-1.2,0.1-2.2l0.2-0.1c0.3,0.2,0.5,0.4,0.9,0.6c0.7,0.3,1.5,0.5,2.2,0.6c1.2,0,1.7-0.5,1.7-1c0-0.8-0.9-1-1.5-1.2L31,9.9
	c-1-0.4-2.8-1-2.8-3.1c0-0.6,0.2-1.2,0.5-1.7C29.9,3.5,32,3.4,33,3.4c1.1,0,2.2,0.2,3.2,0.5L36.4,4l-0.2,2.2l-0.2,0.1
	c-0.8-0.5-1.7-0.8-2.6-0.8c-1.3,0-1.5,0.7-1.5,0.9c0,0.6,0.6,0.8,1.3,1L34.1,7.6z"/>
</svg>
